<svg xmlns="http://www.w3.org/2000/svg" id="Layer_2" data-name="Layer 2" viewBox="0 0 488.06 282.87">
  <g id="Layer_1-2" data-name="Layer 1">
    <g>
        <path d="m54.94,50.17c-.66,4.03-3.97,5.51-7.04,7.09-4.63,2.38-9.57,3.81-14.79,4.06-1.89.09-3.46.38-4.69,2.17-6.75,9.84-6.95,30.15.25,39.48,7.97,10.31,18.42,14.84,31.59,11.98,16.76-3.64,29.1-13.7,39.47-26.85-8.82,3.19-17.61,5.87-27.08,5.26-6.62-.42-12.78-2.16-18.28-5.88-8.7-5.89-9.84-16.37-2.71-24.13,5.77-6.27,13.31-8.81,21.45-9.22,9.95-.5,19.33,2.26,28.19,6.85-5.89-1.52-11.7-3.34-17.76-4.18-5.88-.81-11.62-.54-17.26,1.16-7.24,2.18-10.89,6.57-11.07,13.02-.21,7.64,4.14,14.75,10.58,17.07,8.52,3.07,17.01,2,25.49-.37,8.97-2.51,15.51-7.34,20.76-15.59,16.76-26.34,38.87-47.07,67.88-59.66,2.87-1.25,6-1.92,9.02-2.81,1.28-.37,2.77-.75,3.69.52,1.01,1.4-.32,2.51-1.02,3.54-7.56,11.15-15.15,22.27-22.76,33.38-15.13,22.08-30.24,44.17-45.46,66.19-1.92,2.78-3.56,7.74-8.15,4.96-4.49-2.72-.46-5.94.83-8.95,3.98-9.28,3.58-18.75.85-28.26-.57-1.98-1.73-2.23-3.37-1.17-3.47,2.23-7,4.14-9.66,7.64-9.58,12.58-20.68,23.47-35.96,29.05-13.49,4.92-26.66,5.55-38.86-3.58-11.52-8.63-14.41-16.94-10.83-30.93,1.49-5.82,3.74-11.38,6.6-16.66,1.61-2.98,1-3.89-2.34-4.31-9.45-1.18-16.94-5.61-21.63-14.18-.46-.83-1.22-1.62-.66-3.04,1.81.45,2.27,2.18,3.03,3.42,4.95,8.19,12.75,11.18,21.72,12.29,2.75.34,3.8-1.35,5.1-3.13,4.06-5.53,8.43-10.74,15.03-13.45,2.76-1.13,5.58-1.54,8.04.44,2.1,1.69,4.01,3.73,1.85,6.73-1.69-6.76-4.69-8.21-10.67-5.07-4.96,2.6-8.47,6.75-11.62,11.24-.54.78-1.37,1.67-.71,2.67.65.99,1.77.53,2.73.43,7.79-.79,14.62-3.7,20.24-9.24ZM190.09,12.48c-2.27-1.71-4-.48-5.55.11-29.31,11.19-51.21,31.32-68.49,56.99-.86,1.28-1.62,2.74-.41,4.1,1.59,1.79,3.07.3,4.36-.57,8.69-5.85,18.24-9.51,28.56-11,3.29-.48,5.35-2.04,7.24-4.56,6.07-8.1,12.34-16.05,18.48-24.11,5.29-6.94,10.52-13.94,15.8-20.95Zm-40.28,52.79c-10.02.13-18.36,3.38-26.32,8.1-4.36,2.59-6.33,5.26-4.23,10.37,1.52,3.69,1.73,7.74,1.79,11.76.03,1.98-.59,4.12.8,6.49,9.55-12.54,18.76-24.63,27.97-36.73Z"/>
        <path d="m366,215.31c-4.69.78-8.95.99-14.67.17,8.89-3.84,7.45-10.91,7.8-17.32.6-11.11,1.11-22.23,1.84-33.33.4-5.97-.11-11.54-5.09-15.85,8.46-2.96,11.9-1.68,15.33,5.64,6.85,14.6,13.62,29.23,20.44,43.84.69,1.47,1.5,2.88,2.73,5.21,1.68-3.5,3.03-6.25,4.33-9.03,6.19-13.25,12.39-26.5,18.55-39.77,3.52-7.58,6.22-8.75,16.33-5.73-7.7,2.11-6.52,7.5-6.31,12.37.65,15.11,1.51,30.2,2.15,45.31.17,4.01,2.65,6.16,7.09,8.69h-21.88c6.81-3.34,4.67-9.44,4.43-14.85-.58-12.93-1.32-25.85-2.85-39.03-2.58,5.44-5.2,10.87-7.75,16.33-5.28,11.3-10.5,22.61-15.79,33.9-.67,1.43-1.01,3.64-3.01,3.5-1.89-.13-2.13-2.32-2.81-3.78-7.04-15.06-14.05-30.13-21.09-45.19-.55-1.17-1.28-2.25-2.47-3.33-1.08,6.17-.83,12.39-1.51,18.52-.81,7.25-.69,14.59-1.21,21.88-.35,4.91-.06,9.33,5.42,11.83Z"/>
        <path d="m404.48,108.67c4.78-2.81,5.28-6.54,4.93-11.39-.99-13.73-1.42-27.5-2.11-42.12-2.45,1.96-2.92,4.08-3.77,5.88-6.73,14.28-13.36,28.61-20.1,42.88-.8,1.68-.98,4.47-3.44,4.33-1.99-.12-2.26-2.61-3.01-4.22-7.01-15.07-13.99-30.14-21-45.21-.47-1-1.04-1.95-2.18-4.08-1.03,16.31-2.18,31.29-2.34,46.34-.04,3.61,2.55,5.1,5.94,7.21-5.23,1.49-9.5.66-14.84.74,2.65-2.83,6.04-3.69,6.38-6.98.29-2.81.49-5.63.64-8.45.71-13.58,2.1-27.14,1.84-40.76-.08-4.1-.81-8.05-5.64-9.97,8.61-3.07,12.73-1.45,16.2,5.94,7.34,15.63,14.67,31.26,22.14,47.17,2.13-.96,2.44-2.88,3.16-4.41,6.65-14.13,13.21-28.31,19.89-42.43,3.84-8.13,5.44-8.79,15.32-6.49-5.51,2.74-5.79,6.96-5.34,12.19,1.13,13.23,1.6,26.52,2.18,39.79.23,5.34-.66,11,7.09,13-.4.34-.79.68-1.19,1.02h-20.72Z"/>
        <path d="m291.16,183.18c-.03-11.45,3.16-20.49,10.22-27.97,12.42-13.15,31.33-12.23,42.56,1.97,10,12.65,11.48,31.01,3.25,44.94-6.18,10.45-15.05,16.96-27.75,15.82-12.32-1.1-20.11-8.68-24.98-19.51-2.33-5.18-3.56-10.7-3.3-15.25Zm10.18-8.97c-.01,14.4,3.06,25.74,11.86,34.89,9.52,9.89,20.59,7.72,26.08-4.87,2.95-6.75,3.47-13.87,2.8-21.03-1.01-10.83-4.29-20.94-12.22-28.77-9.12-9.01-20.08-6.8-25.41,4.77-2.49,5.41-3.26,11.12-3.11,15.01Z"/>
        <path d="m92.14,215.35c4.99-2.5,5.72-6.39,5.66-11.1-.19-14.61-.13-29.22-.04-43.83.03-4.83.15-9.52-5.87-10.96,1.06-2.18,2.56-1.6,3.76-1.61,6.97-.08,13.95-.11,20.92-.07,4.72.02,9.28.93,13.35,3.41,9.7,5.89,9.59,18.66-.15,24.41-.83.49-1.68.96-2.79,1.6,1.55,1.85,3.65,1.93,5.35,2.71,6.84,3.14,10.47,8.28,10.76,15.92.3,8.03-3.23,13.68-10.11,17.43-1.3.71-2.71,1.37-4.15,1.65-12.13,2.31-24.31.6-36.68.46Zm15.79-19.52c0,4.47,0,8.94,0,13.41,0,2.4.91,4.13,3.31,4.95,6.26,2.14,14.65-.34,18.96-5.65,5.41-6.66,5.92-15.24,1.32-22.16-4.42-6.65-13.01-9.52-21.17-7.23-2.11.59-2.4,2.04-2.42,3.76-.03,4.3-.01,8.61,0,12.92Zm6.97-18.96c7.98-.05,12.69-3.2,14.84-9.93,1.67-5.22-.6-11.03-5.58-14.82-3.52-2.68-7.54-2.12-11.5-2.13-3.35,0-4.77,1.76-4.75,5.01.04,4.99-.02,9.98,0,14.97.02,6.82.16,6.95,6.99,6.91Z"/>
        <path d="m298.15,145.05c2.19-.58,4.41-1.11,6.58-1.76,4.19-1.26,8.1-3.31,8.24-8.16.14-4.94-3.38-7.75-7.76-9.25-7.17-2.47-14.64-2.95-22.14-2.62-9.18.39-18.14,2.1-26.68,5.61-1.14.47-2.92.68-2.75,2.39.13,1.24,1.71,1.38,2.65,2.02,2.79,1.89,5.59,1.24,8.58.41,10.94-3.02,18.99.45,24.38,10.04,1.59,2.83,1.32,5.91.95,8.59-3.57,25.38-20.91,60.72-58.53,67.95-5.2,1-10.42,1.82-15.81,1.02-11.85-1.75-18.17-8.8-18.48-20.86-.67-26.01,11.36-45.45,31.39-60.73,4.1-3.13,8.58-5.71,13.29-7.83,2.49-1.12,3.47-2.32.47-4.73,4.22,1.9,7.66,1.27,11.46-.05,15.43-5.38,31.24-7.78,47.49-4.19,3.75.83,7.4,1.98,10.14,4.96,4.55,4.96,3.85,11.37-1.83,14.89-3.48,2.16-7.27,3.55-11.63,2.29Zm-74.47,74.58c6.4-.26,15.02-2.02,23-5.99,24.66-12.27,35.56-34.35,41.34-59.63,1.43-6.27-.45-12.43-6.32-16.68-11.33-8.19-31.32,2.83-34.29,12.53-.33,1.07-.28,2.29-.21,3.42.1,1.57.09,3.06-1.55,3.85-1,.48-2.03.26-2.67-.64-1-1.42-.43-2.84.25-4.23,2.44-4.97,5.36-9.52,9.93-12.91,1.32-.98,4.77-1.67,2.98-4-1.55-2.01-4.46-3.81-7.53-2.52-1.96.82-3.77,2.12-5.47,3.43-11.84,9.14-21.3,20.43-29.57,32.8-5.71,8.55-9.61,17.8-11.32,27.97-2.38,14.11,4.76,22.69,21.44,22.61Z"/>
        <path d="m428.2,42.65c9.25-2.7,14.35-1.04,19.01,5.38,10.54,14.52,21.11,29.01,31.68,43.55,1.83-1.08,1.15-2.56,1.15-3.74.06-11.64-.07-23.29.09-34.93.06-4.25-.48-7.93-5.81-10.25,5.16-1.31,9.25-.91,13.72-.27-5.67,2.39-5.88,6.93-5.83,11.95.16,16.3.08,32.6,0,48.9,0,2.06,1.04,5.12-1.09,5.93-2.34.89-3.21-2.28-4.38-3.89-11.99-16.37-23.87-32.81-35.82-49.21-1.13-1.55-1.98-3.41-4.5-4.81,0,4.37,0,8.28,0,12.19,0,10.98.1,21.96-.06,32.93-.07,4.91.33,9.34,6.57,11.78-5.13,1.7-9.24.75-13.98.32,7.28-2.89,5.91-8.81,5.92-14.15.05-13.47-.11-26.95.08-40.41.07-4.9-.83-8.92-6.77-11.26Z"/>
        <path d="m302.4,42.28c-4.53,2.51-5.09,6.38-5.02,10.84.17,11.13-.03,22.26.09,33.39.11,11.03,7.07,18.39,17.24,18.49,10.55.1,18.12-7.13,18.35-18.08.25-11.79,0-23.59.1-35.38.04-4.15-1.97-6.82-6.69-8.86,5.32-1.34,9.32-.84,14.02-.26-7.5,3.42-5.74,9.79-5.79,15.52-.07,9.63.05,19.27-.04,28.9-.13,13.44-10.46,24.15-23.33,24.34-13.18.19-23.73-10.33-23.96-24.19-.18-11.29-.15-22.59,0-33.89.06-4.26-.57-7.92-4.59-10.83h19.63Z"/>
        <path d="m280.09,57.03c-3.42-3.77-5.63-8.11-10.07-10.41-1.9-.99-3.88-1.93-5.94-2.52-8.85-2.5-11.22-.7-11.22,8.32,0,14.79.12,29.59-.07,44.38-.06,4.83.64,8.92,5.45,11.8h-20.21c6.63-3.21,5.21-9.25,5.22-14.73.04-14.63.04-29.26,0-43.88-.02-5.79-1.01-6.73-6.7-6.58-8.12.21-14.29,3.79-18.48,10.79-.64,1.07-.74,2.6-3.49,3.33,1.68-5.2,3.05-9.82,4.69-14.34.61-1.69,2.46-1.41,3.94-1.41,16.12,0,32.24.1,48.35-.02,3.44-.02,5.24,1.26,5.93,4.57.75,3.59,1.71,7.13,2.59,10.69Z"/>
        <path d="m195.21,205.26c-1.72,2.98-3.43,5.96-5.17,8.92-.86,1.47-2.3,1.81-3.86,1.81-12.95-.01-25.9-.03-38.86-.08-.42,0-.85-.34-1.97-.83,5.6-2.56,5.39-7.17,5.36-11.87-.1-14.12-.13-28.23.02-42.35.05-4.82.04-9.35-4.99-12.49h20.02c-5.67,3.26-4.88,8.48-4.87,13.45.02,15.28-.02,30.56.02,45.84.02,5.59,1.16,6.68,6.69,6.87,13.46.47,15.64-.33,27.59-9.28Z"/>
        <path d="m199.21,42.27c5.68-.86,9.86-1.39,15.11.47-6.33,1.89-6.58,6.22-6.53,10.94.14,11.13.25,22.27-.03,33.39-.24,9.98-5.06,17.51-14.08,21.8-9.01,4.29-17.55,2.61-25.1-3.65-5.1-4.23-7.88-9.87-8.05-16.51-.2-7.47-.14-14.95-.05-22.43.08-6.44,5.64-9.78,8.2-15.34,1.87,1.94,1.32,3.67,1.33,5.19.06,10.13-.23,20.28.12,30.4.53,15.16,15.35,23.63,27.51,15.95,4.8-3.03,7.77-7.46,7.88-13.13.24-13.12.04-26.25.16-39.37.03-3.79-2.45-5.52-6.46-7.73Z"/>
        <g>
            <path d="m96.24,33.42c1.99-3.32,2.19-6.18,2.43-9.14.4-5.02-1.8-6.06-6.38-6.12-4.89-.07-6.69,1.67-6.06,6.36.13.98-.04,2,.06,2.98q.66,6.6-7.04,5.49c2.74-8.83.93-17.88,1.37-26.82.02-.33-.16-.69-.07-.98.52-1.73-3.52-2.9-.95-4.43,2.07-1.24,4.87-.65,7.32-.21,1.62.29,1.72,1.27.7,2.48-1.14,1.35-1.31,2.97-1.39,4.66-.37,8.02,1.15,9.39,9.02,8.28,1.93-.27,3.23-1,3.21-3.02-.04-3.27.98-6.74-1.02-9.71-1.32-1.96-.75-2.72,1.26-2.84,1.98-.12,3.98-.07,5.96.1.95.08,2.27.69,1.32,1.89-3.18,4.02-1.77,8.67-1.69,12.98.09,5.36-1.5,10.91,1.31,16.1.96,1.77-.64,1.89-1.77,1.93-2.28.08-4.57.02-7.58.02Z"/>
            <path d="m129.5,9.95c-1.68,5.37-3.63,8.76-6.52,12.03-1.28-1.63,1.4-5.02-2.64-4.73-3.55.25-3.44,2.7-3.18,4.98.35,3.11-1.86,7.3,1.94,9.05,3.84,1.76,7.79.19,11.12-2.42.62-.49,1.28-.94,2.44-1.78.08,3.55-1.07,5.98-4.02,6.15-6.21.35-12.46.11-18.22.11,1.19-10.66,2.74-20.71-.63-30.66-.64-1.89.32-2.21,1.43-2.23,5.64-.08,11.32-.39,16.9.19,3.34.35,2.96,3.18,1.88,5.83-4.51-3.78-9.9-5.1-11.97-3.06-1.15,1.14-1.61,9.66-.25,10.53,4.41,2.85,7.63-.09,11.71-3.99Z"/>
            <path d="m46.07,9.11c-.56-6.96.8-8.73,6.5-8.83,5.48-.09,10.97-.05,16.46-.01,6.42.04,7.39,1.12,7.43,8.34-2.81-1.07-3.49-4.36-6.27-5.36-4.22-1.51-6.23-.61-5.93,3.83.55,8.19-1.88,16.56,1.47,24.57.46,1.09-.19,1.61-1.11,1.66-1.99.11-3.99.13-5.97.06-1.48-.05-1.89-.6-1.33-2.25,2.83-8.4,1-17.08,1.14-25.63.06-3.78-3.11-3.14-5.59-2.43-2.97.85-4.52,3.62-6.8,6.05Z"/>
        </g>
    </g>
  </g>
</svg>
