<?xml version="1.0" encoding="UTF-8"?>
<svg id="Layer_2" data-name="Layer 2" xmlns="http://www.w3.org/2000/svg" viewBox="0 0 63.08 62.19">
  <defs>
    <style>
      .cls-1 {
        fill: #4d4e50;
      }
    </style>
  </defs>
  <g id="Object">
    <g>
      <path className="cls-1" d="m59.41.74c-1.71-.35-3.92-.58-6.57-.69-2.76-.11-4.7,0-5.93.38-1.23.37-3.21,1.5-6.04,3.48-2.74,1.91-6.4,5.05-10.87,9.32-4.45,4.26-8.48,8.46-11.95,12.5-3.12,3.61-6.36,7.62-9.66,11.93-.01-.02-.02-.04-.03-.06-.33.32-.63.65-.92,1-.03.03-.05.07-.08.11-3.18,3.81-7.61,10.84-6.14,16.26.08.14.15.29.23.44.51.3,1,.62,1.48.95.61.22,1.21.45,1.82.66.62.05,1.24.11,1.87.15,3.33-.45,6.37-1.34,9.31-2.83.51-.46.98-.94,1.5-1.39.04-.06.07-.11.11-.16,5.27-7.99,11.89-16.14,19.66-24.2,7.75-8.04,14.97-14.11,21.46-18.04,1.59-.94,2.58-1.64,3.12-2.2.61-.63,1.02-1.42,1.21-2.36.24-1.19.04-2.3-.61-3.31-.65-1.01-1.65-1.67-2.96-1.93Z"/>
      <path className="cls-1" d="m50.69,41.04c-1.82-2.61-4.8-6.09-8.87-10.35-4.05-4.24-8.05-8.07-11.9-11.38-3.27-2.82-6.89-5.75-10.75-8.73-.23-.07-.45-.2-.66-.41-3.27-3.26-6.85-4.98-11.12-6.63-.14-.05-.26-.12-.36-.19-1.8-.43-3.58-.51-5.2,0-.21.11-.41.23-.61.38-.32.85-.63,1.71-.94,2.57-.04.24-.1.48-.16.72-.04.47-.09.95-.12,1.42.38,2.8,1.09,5.38,2.22,7.87.44.79.93,1.55,1.52,2.24.14.1.28.19.43.29,7.61,5.02,15.36,11.32,23.03,18.71,7.65,7.38,13.43,14.25,17.17,20.42.9,1.51,1.56,2.45,2.09,2.97.6.58,1.36.97,2.25,1.15,1.13.23,2.19.03,3.15-.58.97-.62,1.59-1.57,1.84-2.82.33-1.62.55-3.73.66-6.25.11-2.63,0-4.47-.36-5.65-.35-1.17-1.43-3.05-3.31-5.75Z"/>
    </g>
  </g>
</svg>