<?xml version="1.0" encoding="UTF-8"?>
<svg id="Layer_2" data-name="Layer 2" xmlns="http://www.w3.org/2000/svg" viewBox="0 0 58.57 59.41">
  <defs>
    <style>
      .cls-1 {
        fill: #4d4e50;
      }
    </style>
  </defs>
  <g id="Object">
    <path className="cls-1" d="m54.73,0c-1.47,0-3.34.18-5.55.54-2.3.37-3.89.8-4.85,1.31-.96.51-2.4,1.79-4.41,3.9-1.95,2.05-4.44,5.26-7.42,9.55-2.97,4.27-5.58,8.43-7.78,12.36-1.97,3.52-3.97,7.38-5.97,11.5-1.4-1.78-2.88-3.21-4.4-4.25-1.93-1.33-3.78-2-5.49-2s-3.66.76-5.68,2.27c-2.11,1.57-3.18,3.36-3.18,5.31,0,1.47.91,3.18,2.79,5.24,2.73,2.99,4.93,5.77,6.55,8.26,1.2,1.85,2.03,3.02,2.52,3.57.56.62,1.27,1.09,2.12,1.4.81.29,2.16.44,4.13.44,2.7,0,4.54-.29,5.62-.88,1.08-.59,1.94-1.44,2.54-2.5.55-.96,1.4-2.89,2.61-5.88,3.01-7.51,7.11-15.36,12.17-23.35,5.05-7.96,10-14.21,14.7-18.55,1.15-1.05,1.86-1.79,2.21-2.35.4-.62.6-1.35.6-2.16,0-1.02-.36-1.91-1.07-2.63-.71-.73-1.65-1.1-2.77-1.1Z"/>
  </g>
</svg>