<?xml version="1.0" encoding="UTF-8"?>
<svg id="Layer_2" data-name="Layer 2" xmlns="http://www.w3.org/2000/svg" viewBox="0 0 70.35 46.81">
  <defs>
    <style>
      .cls-1 {
        fill: #ffff;
      }
    </style>
  </defs>
  <g id="Object">
    <g>
      <path class="cls-1" d="m.14,43.04l30.81-18.17L0,6.63v35.3c0,.38.05.75.14,1.11Z"/>
      <path class="cls-1" d="m32.31,25.67L.66,44.33c.84,1.47,2.4,2.48,4.22,2.48h60.6c1.97,0,3.66-1.18,4.43-2.86l-31-18.28-3.3,1.94-3.3-1.94Z"/>
      <path class="cls-1" d="m70.35,41.93V7.13l-30.09,17.74,30.02,17.71c.03-.21.07-.42.07-.65Z"/>
      <path class="cls-1" d="m4.88,0C2.18,0,0,2.18,0,4.87v.15l35.6,20.99L70.35,5.52v-.65c0-2.69-2.18-4.87-4.88-4.87H4.88Z"/>
    </g>
  </g>
</svg>