<?xml version="1.0" encoding="UTF-8"?>
<svg id="Layer_2" data-name="Layer 2" xmlns="http://www.w3.org/2000/svg" viewBox="0 0 70.04 70.7">
  <defs>
    <style>
      .cls-1 {
        fill: #ffff;
      }
    </style>
  </defs>
  <g id="Object">
    <g>
      <path class="cls-1" d="m22.08,30.62l2.13-2.36c1.76-1.95,2.66-4.46,2.52-7.08-.13-2.62-1.27-5.03-3.22-6.79l-3.6-3.26c-1.81-1.64-4.15-2.54-6.58-2.54-2.77,0-5.43,1.18-7.29,3.23l-2.14,2.36c-.27.3-.54.63-.78.99l-.1.11c-2.02,1.72-3.73,5.92-2.74,11.06,4.59,23.9,24.72,42.11,48.97,44.29,3.18.29,6.17-.37,8.44-1.76.91-.53,1.71-1.17,2.4-1.93l2.14-2.36c3.63-4.02,3.32-10.24-.7-13.87l-3.6-3.26c-1.81-1.64-4.15-2.54-6.58-2.54-2.77,0-5.43,1.18-7.28,3.23l-2.14,2.36c-.91,1.01-1.59,2.17-2.02,3.45l-.19.57-.56-.22c-9.53-3.76-17.29-10.89-21.86-20.06l-.3-.61.65-.2c1.71-.51,3.24-1.49,4.45-2.82Z"/>
      <path class="cls-1" d="m34.07,2.29c0,1.26,1.02,2.29,2.29,2.29,16.05,0,29.1,13.05,29.1,29.1,0,1.26,1.02,2.29,2.29,2.29s2.29-1.02,2.29-2.29C70.04,15.11,54.93,0,36.36,0c-1.26,0-2.29,1.03-2.29,2.29Z"/>
      <path class="cls-1" d="m33.7,13.49c0,1.26,1.02,2.29,2.29,2.29,10.07,0,18.27,8.19,18.27,18.27,0,1.26,1.03,2.29,2.29,2.29s2.29-1.02,2.29-2.29c0-12.6-10.25-22.84-22.85-22.84-1.26,0-2.29,1.02-2.29,2.29Z"/>
    </g>
  </g>
</svg>